HIERARCHY
ROOT root
{
	OFFSET 0.000000 0.000000 0.000000
	CHANNELS 6 Xposition Yposition Zposition Zrotation Yrotation Xrotation
	JOINT lhip
	{
		OFFSET 0.058581 -0.082280 -0.017664
		CHANNELS 3 Zrotation Yrotation Xrotation
		JOINT lknee
		{
			OFFSET 0.043451 -0.386469 0.008037
			CHANNELS 3 Zrotation Yrotation Xrotation
			JOINT lankle
			{
				OFFSET -0.014790 -0.426874 -0.037428
				CHANNELS 3 Zrotation Yrotation Xrotation
				JOINT ltoe
				{
					OFFSET 0.041054 -0.060286 0.122042
					CHANNELS 3 Zrotation Yrotation Xrotation
					End Site
					{
						OFFSET 0.000000 0.000000 0.000000
					}
				}
			}
		}
	}
	JOINT rhip
	{
		OFFSET -0.060310 -0.090513 -0.013543
		CHANNELS 3 Zrotation Yrotation Xrotation
		JOINT rknee
		{
			OFFSET -0.043257 -0.383688 -0.004843
			CHANNELS 3 Zrotation Yrotation Xrotation
			JOINT rankle
			{
				OFFSET 0.019056 -0.420046 -0.034562
				CHANNELS 3 Zrotation Yrotation Xrotation
				JOINT rtoe
				{
					OFFSET -0.034840 -0.062106 0.130323
					CHANNELS 3 Zrotation Yrotation Xrotation
					End Site
					{
						OFFSET 0.000000 0.000000 0.000000
					}
				}
			}
		}
	}
	JOINT lowerback
	{
		OFFSET 0.004439 0.124404 -0.038385
		CHANNELS 3 Zrotation Yrotation Xrotation
		JOINT upperback
		{
			OFFSET 0.004488 0.137956 0.026820
			CHANNELS 3 Zrotation Yrotation Xrotation
			JOINT chest
			{
				OFFSET -0.002265 0.056032 0.002855
				CHANNELS 3 Zrotation Yrotation Xrotation
				JOINT lowerneck
				{
					OFFSET -0.013390 0.211636 -0.033468
					CHANNELS 3 Zrotation Yrotation Xrotation
					JOINT upperneck
					{
						OFFSET 0.010113 0.088937 0.050410
						CHANNELS 3 Zrotation Yrotation Xrotation
						End Site
						{
							OFFSET 0.000000 0.000000 0.000000
						}
					}
				}
				JOINT lclavicle
				{
					OFFSET 0.071702 0.114000 -0.018898
					CHANNELS 3 Zrotation Yrotation Xrotation
					JOINT lshoulder
					{
						OFFSET 0.122921 0.045205 -0.019046
						CHANNELS 3 Zrotation Yrotation Xrotation
						JOINT lelbow
						{
							OFFSET 0.255332 -0.015649 -0.022946
							CHANNELS 3 Zrotation Yrotation Xrotation
							JOINT lwrist
							{
								OFFSET 0.265709 0.012698 -0.007375
								CHANNELS 3 Zrotation Yrotation Xrotation
								End Site
								{
									OFFSET 0.000000 0.000000 0.000000
								}
							}
						}
					}
				}
				JOINT rclavicle
				{
					OFFSET -0.082954 0.112472 -0.023707
					CHANNELS 3 Zrotation Yrotation Xrotation
					JOINT rshoulder
					{
						OFFSET -0.113228 0.046853 -0.008472
						CHANNELS 3 Zrotation Yrotation Xrotation
						JOINT relbow
						{
							OFFSET -0.260127 -0.014369 -0.031269
							CHANNELS 3 Zrotation Yrotation Xrotation
							JOINT rwrist
							{
								OFFSET -0.269108 0.006794 -0.006027
								CHANNELS 3 Zrotation Yrotation Xrotation
								End Site
								{
									OFFSET 0.000000 0.000000 0.000000
								}
							}
						}
					}
				}
			}
		}
	}
}
MOTION
Frames: 10
Frame Time: 0.033333
0.004056 2.029497 0.976163 -23.394007 -0.248258 87.881805 5.447003 6.352514 1.955730 -3.009024 3.853637 5.868846 3.220896 13.608591 -13.348087 0.000000 -0.000000 0.000000 -6.886771 -7.591723 -2.621583 1.912225 -8.878490 12.946129 1.060856 -7.981790 -12.325899 0.000000 -0.000000 0.000000 0.438357 1.819065 2.294492 0.555101 -1.696648 7.717790 -1.445554 -1.567694 0.069324 1.908489 2.726117 -1.090164 -1.187747 -1.445598 -1.788407 -31.474671 0.826748 1.966600 -57.517786 -1.017687 12.394103 12.108397 -29.837483 0.277017 -1.063502 -9.177090 3.450809 29.391953 3.299265 3.004076 56.500094 1.938398 10.700554 -14.991629 28.070804 -5.485666 2.143342 6.895933 2.937870 
0.002747 2.028727 0.975180 -23.612465 -0.297805 87.741488 5.518758 6.313670 2.210208 -3.170816 3.725232 5.954448 3.277922 14.079776 -13.648927 0.000000 -0.000000 0.000000 -6.971507 -7.292413 -2.901386 2.019984 -8.550290 13.874356 1.277139 -8.281864 -12.901117 0.000000 -0.000000 0.000000 0.500109 1.672396 2.483640 0.260799 -1.565913 7.568614 -1.431630 -1.608053 0.288411 2.137687 3.347099 -1.334854 -1.466850 -0.583132 -1.200104 -31.190565 0.750214 1.997556 -57.665759 -1.242563 12.224498 12.183477 -29.539919 0.283104 -1.231091 -8.872819 3.564071 29.283373 3.309296 3.093195 56.926694 2.175505 10.873012 -15.154833 28.104680 -5.326931 2.287556 6.819789 2.524206 
0.001105 2.027103 0.974519 -23.700917 -0.343266 87.577560 5.604765 6.306280 2.515390 -3.290718 3.658214 6.077135 3.358947 14.208203 -13.956050 0.000000 -0.000000 0.000000 -7.040074 -7.114083 -3.111948 2.077589 -8.390917 14.845699 1.180353 -8.416534 -13.716798 0.000000 -0.000000 0.000000 0.461558 1.592025 2.892365 0.210360 -1.507532 7.314418 -1.420288 -1.742865 0.236691 2.151664 3.802361 -1.507388 -1.603962 0.083476 -0.829353 -31.296786 0.526249 2.294831 -57.426286 -1.300749 12.008859 12.087388 -29.137057 0.473404 -1.019704 -8.758651 3.133479 29.296326 3.250332 3.117987 57.058093 2.056702 11.021158 -15.002026 28.182937 -4.985072 2.310806 6.814082 2.359086 
-0.001579 2.024295 0.973639 -23.952720 -0.384921 87.541438 5.788897 6.530574 2.388860 -3.542045 3.373432 7.107491 3.395292 14.401062 -14.772289 0.000000 -0.000000 0.000000 -7.092289 -7.057271 -3.488232 2.132519 -8.197419 16.126011 0.851924 -8.451830 -14.917277 0.000000 -0.000000 0.000000 0.434508 1.497717 2.807732 0.175388 -1.560319 7.475253 -1.548015 -1.747006 0.134352 2.251800 4.297480 -1.459395 -1.805709 0.805105 -0.612241 -31.454304 0.092374 2.494265 -56.855323 -1.067669 12.012743 11.849803 -28.774092 0.618920 -0.791381 -8.663448 3.479118 29.516367 3.466258 3.316069 57.035611 1.841541 11.050642 -14.646497 28.218645 -4.642346 2.396963 6.758881 2.372585 
-0.003348 2.022504 0.972964 -24.082001 -0.381637 87.528764 5.954228 6.419964 2.193267 -3.785548 3.453608 7.873647 3.653696 14.678160 -15.398002 0.000000 -0.000000 0.000000 -7.158043 -6.937987 -3.677917 2.361441 -7.982335 16.859782 0.876042 -8.523201 -15.699916 0.000000 -0.000000 0.000000 0.429520 1.502258 3.048100 0.132226 -1.576248 7.266237 -1.579826 -1.794841 0.116323 2.195975 4.689364 -1.570666 -1.829858 1.367286 -0.617886 -31.455696 -0.011382 2.367068 -56.473031 -0.983073 12.147545 11.499712 -28.363380 1.238926 -0.950790 -8.720950 3.678922 29.585505 3.482868 3.294081 57.123191 1.616473 11.282249 -14.507029 28.120857 -4.261054 2.581334 6.776982 2.239841 
-0.006098 2.018670 0.971563 -24.603201 -0.344548 87.332562 6.161996 6.026810 2.469272 -4.056330 3.902277 8.783279 4.025535 15.053899 -16.353415 0.000000 -0.000000 0.000000 -7.260012 -6.770678 -3.819759 2.609190 -7.677094 18.029326 0.800138 -8.506085 -16.765917 0.000000 -0.000000 0.000000 0.540465 1.567641 3.257732 0.012271 -1.487563 7.418933 -1.673302 -1.797816 0.015191 2.233010 4.913721 -1.563682 -2.008870 1.706266 -0.793730 -31.676267 -0.558669 2.734490 -55.311235 -0.872979 12.078004 10.932093 -28.440706 2.066321 -1.653915 -8.748972 4.035415 29.641903 3.930300 3.644034 57.238238 1.414734 11.385971 -14.199108 27.707232 -3.770904 3.162133 6.565971 1.920698 
-0.009395 2.014812 0.969972 -25.031065 -0.341966 87.348257 6.424800 6.445854 2.455321 -4.370049 3.592875 9.647568 4.156500 15.439489 -17.261871 0.000000 -0.000000 0.000000 -7.326782 -6.646839 -4.219241 2.770179 -7.510940 19.290572 0.751996 -8.473262 -17.859016 0.000000 -0.000000 0.000000 0.416004 1.516038 3.365026 -0.004512 -1.520641 7.753442 -1.808159 -1.673895 -0.274719 2.327621 5.707682 -2.089690 -1.868846 2.326508 -0.452113 -31.651384 -1.315224 2.887224 -53.852622 -0.652813 12.447814 9.672455 -28.208116 3.627168 -1.546934 -9.156221 4.812221 30.145376 4.321537 3.910425 56.915564 1.274972 11.390768 -13.717526 27.529397 -3.245184 3.179073 6.857937 2.167160 
-0.013347 2.009984 0.968233 -25.621760 -0.358429 87.143957 6.658045 6.393440 2.817773 -4.660544 3.683057 10.519482 4.372793 15.848942 -18.148933 0.000000 -0.000000 0.000000 -7.410726 -6.391583 -4.127579 2.964578 -7.210709 20.248171 0.539777 -8.521840 -18.817069 0.000000 -0.000000 0.000000 0.162818 1.587997 3.933908 -0.034601 -1.455019 7.695495 -1.711297 -1.614145 -0.480059 2.365234 6.050818 -1.934689 -1.907687 2.930258 -0.617929 -31.534180 -1.953885 2.981883 -52.579012 -0.530346 12.556874 8.801954 -28.127760 4.519154 -2.191857 -9.049110 5.225170 30.206238 4.687519 4.124501 56.983978 0.796968 11.570156 -13.358838 27.541213 -2.808597 3.730547 6.997992 1.956952 
-0.018006 2.003795 0.966316 -26.411256 -0.263454 87.283297 6.931409 6.597372 3.065867 -4.805187 3.931288 11.101018 4.676615 16.150116 -18.961968 0.000000 -0.000000 0.000000 -7.336978 -6.286802 -4.302253 3.103130 -6.800401 21.144825 0.478523 -8.303476 -19.665564 0.000000 -0.000000 0.000000 -0.048698 1.721842 3.910745 -0.003909 -1.381869 7.918926 -1.623851 -1.563201 -0.728775 2.443153 6.617049 -1.900623 -1.892723 3.379268 -0.701449 -31.493903 -2.464317 3.006424 -51.369773 -0.386842 12.489316 8.371197 -28.066224 4.770547 -2.301919 -9.104198 5.426301 30.425886 4.936099 4.429625 56.964602 0.429473 11.645585 -13.065151 27.709689 -2.326341 3.634085 7.215003 2.244432 
-0.023837 1.995328 0.963565 -27.531352 -0.093840 87.743979 7.266616 6.766265 3.022371 -5.057480 4.312583 12.016852 4.866528 16.871996 -19.967105 0.000000 -0.000000 0.000000 -7.169374 -5.991558 -4.906059 3.321100 -6.254727 22.390190 0.261603 -8.153559 -20.775884 0.000000 -0.000000 0.000000 -0.208126 1.682530 3.879387 -0.033022 -1.264644 7.933229 -1.657931 -1.526710 -0.955407 2.779161 7.337197 -2.353638 -1.985233 4.309456 -0.157641 -31.243861 -2.693954 2.716086 -50.142620 -0.222136 12.577555 8.054929 -27.854872 4.981185 -1.776033 -9.141625 5.539655 30.582852 4.756387 4.555760 57.079338 -0.008617 11.934177 -12.370425 28.217696 -1.699723 3.257668 7.264432 2.101019 
